<svg xmlns="http://www.w3.org/2000/svg" xmlns:xlink="http://www.w3.org/1999/xlink" id="Layer_4" x="0px" y="0px" width="61.4px" height="64.2px" viewBox="0 0 61.4 64.2" style="enable-background:new 0 0 61.4 64.2;" xml:space="preserve">
<style type="text/css">
	.st0{fill:none;stroke:#FFFFFF;stroke-width:1.4179;stroke-miterlimit:10;}
	.st1{fill:none;stroke:#FFFFFF;stroke-width:1.4179;stroke-linecap:round;stroke-linejoin:round;stroke-miterlimit:10;}
</style>
<g>
	<polygon class="st0" points="50.6,13.5 43.7,13.5 46.2,4.9 36.1,18.6 43,18.6 40.5,27.2  "></polygon>
	<polygon class="st1" points="25,24.5 31.4,0.7 31.4,32.2  "></polygon>
	<polygon class="st1" points="25.8,43 2,49.4 29.2,33.7  "></polygon>
	<polygon class="st1" points="41.5,33.2 58.9,50.6 31.7,34.8  "></polygon>
	<path class="st0" d="M34,33.6c0,1.8-1.5,3.3-3.3,3.3c-1.8,0-3.3-1.5-3.3-3.3s1.5-3.3,3.3-3.3C32.4,30.2,34,31.7,34,33.6z"></path>
	<line class="st0" x1="30.8" y1="36.9" x2="30.8" y2="61.4"></line>
	<g>
		<path class="st0" d="M0.7,33.2c0-15.3,11.6-28.1,26.5-29.8"></path>
		<path class="st0" d="M11.6,19.4c3.3-4.6,8.4-8.1,14.3-9.2"></path>
	</g>
	<g>
		<path class="st0" d="M45.2,59.5c-13.3,7.7-30,4-39-8.1"></path>
		<path class="st0" d="M27.8,56.8c-5.8-0.5-11.3-3.2-15.2-7.7"></path>
	</g>
	<g>
		<path class="st0" d="M54.2,15c6.8,8.4,8.6,20.3,4.1,30.7"></path>
		<path class="st0" d="M52.1,24.1c2.3,5.2,2.7,11.4,0.9,17"></path>
	</g>
</g>
</svg>