<svg xmlns="http://www.w3.org/2000/svg" xmlns:xlink="http://www.w3.org/1999/xlink" id="Layer_4" x="0px" y="0px" width="66.3px" height="64.8px" viewBox="0 0 66.3 64.8" style="enable-background:new 0 0 66.3 64.8;" xml:space="preserve">
<style type="text/css">
	.st0{fill:none;stroke:#FFFFFF;stroke-width:1.3397;}
	.st1{fill:none;stroke:#FFFFFF;stroke-width:1.3397;stroke-linejoin:round;}
</style>
<g>
	<g>
		<path class="st0" d="M40.7,26.9h15.5c4.6,0,8.3,3.7,8.3,8.3v12.4"></path>
		<path class="st0" d="M41.2,26.7h-7.9c-2.5,0-4.5-2-4.5-4.5l0,0c0-2.5,2-4.5,4.5-4.5h12.4"></path>
		<path class="st0" d="M46.9,6.6c3.2,0,5.7,2.5,5.7,5.7l0,0c0,3.2-2.5,5.7-5.7,5.7h-4.5"></path>
	</g>
	<path class="st0" d="M41.3,0.7h-7.5v11.7h7.5c3.3,0,5.9-2.6,5.9-5.9C47.1,3.3,44.5,0.7,41.3,0.7z"></path>
	<g>
		<line class="st0" x1="28.4" y1="3.3" x2="34.5" y2="3.3"></line>
		<line class="st0" x1="28.4" y1="9.7" x2="34.5" y2="9.7"></line>
	</g>
	<line class="st0" x1="37.6" y1="0.3" x2="37.6" y2="7.2"></line>
	<g>
		<path class="st1" d="M17.4,42.8h-2c-5.1,0-11.7,4.1-14.6,9.2l-0.1,0.3l4.2,4.3h5.4"></path>
		<path class="st1" d="M64.5,47.4c0-2.8-2-4.6-5.4-4.6h-5.3"></path>
		<line class="st1" x1="55.1" y1="56.6" x2="60.4" y2="56.6"></line>
		<line class="st1" x1="22.6" y1="56.6" x2="43" y2="56.6"></line>
		<path class="st1" d="M50,32.8H32.1C27,32.8,20.4,37,17.5,42l-0.1,0.3l4.2,4.2L59,42.1C59.2,36.2,55.1,32.8,50,32.8z"></path>
		<path class="st0" d="M22.6,57.9c0,3.4-2.8,6.2-6.2,6.2s-6.2-2.8-6.2-6.2c0-3.4,2.8-6.2,6.2-6.2C19.9,51.9,22.6,54.6,22.6,57.9z"></path>
		<path class="st0" d="M19,57.9c0,1.3-1.1,2.5-2.5,2.5c-1.3,0-2.5-1.1-2.5-2.5c0-1.3,1.1-2.5,2.5-2.5C17.8,55.5,19,56.6,19,57.9z"></path>
		<path class="st0" d="M55.1,57.9c0,3.4-2.8,6.2-6.2,6.2c-3.4,0-6.2-2.8-6.2-6.2c0-3.4,2.8-6.2,6.2-6.2    C52.4,51.9,55.1,54.6,55.1,57.9z"></path>
		<rect x="60.5" y="47.5" class="st0" width="5.1" height="9.1"></rect>
		<line class="st1" x1="39.2" y1="48.3" x2="36.3" y2="48.3"></line>
		<path class="st0" d="M51.5,57.9c0,1.3-1.1,2.5-2.5,2.5c-1.3,0-2.5-1.1-2.5-2.5c0-1.3,1.1-2.5,2.5-2.5    C50.4,55.5,51.5,56.6,51.5,57.9z"></path>
		<line class="st1" x1="43.7" y1="33.8" x2="43.7" y2="55"></line>
		<line class="st1" x1="21.3" y1="46.7" x2="21.3" y2="54.4"></line>
	</g>
</g>
</svg>