<svg xmlns="http://www.w3.org/2000/svg" xmlns:xlink="http://www.w3.org/1999/xlink" id="Layer_4" x="0px" y="0px" width="73.2px" height="60.4px" viewBox="0 0 73.2 60.4" style="enable-background:new 0 0 73.2 60.4;" xml:space="preserve">
<style type="text/css">
	.st0{fill:none;stroke:#FFFFFF;stroke-width:1.3244;stroke-miterlimit:10;}
	.st1{fill:none;stroke:#FFFFFF;stroke-width:1.3244;}
	.st2{fill:none;stroke:#FFFFFF;stroke-width:1.3244;stroke-linejoin:round;stroke-miterlimit:10;}
</style>
<g>
	<line class="st0" x1="28.1" y1="59.8" x2="28.1" y2="52.9"></line>
	<line class="st0" x1="36.6" y1="52.9" x2="36.6" y2="59.8"></line>
	<line class="st0" x1="22.1" y1="59.8" x2="42.8" y2="59.8"></line>
	<g>
		<line class="st1" x1="53" y1="0.1" x2="51.4" y2="7"></line>
		<line class="st1" x1="39.9" y1="0.9" x2="42" y2="7.7"></line>
		<line class="st1" x1="28.8" y1="8.3" x2="33.9" y2="13"></line>
		<line class="st1" x1="22.9" y1="20.2" x2="29.9" y2="21.6"></line>
		<line class="st1" x1="67.1" y1="42.1" x2="62" y2="37.4"></line>
		<line class="st1" x1="73" y1="30.3" x2="66.2" y2="28.7"></line>
		<line class="st1" x1="72.1" y1="17" x2="65.4" y2="19.2"></line>
		<line class="st1" x1="64.9" y1="6.1" x2="60.1" y2="11.2"></line>
	</g>
	<path class="st1" d="M33.3,27.5c-0.1-0.8-0.1-1.6-0.1-2.4c0-8.2,6.6-14.7,14.7-14.7S62.6,17,62.6,25.2c0,4.9-2.4,9.2-6.1,11.8"></path>
	<g>
		<path class="st0" d="M63.8,53.1c-20.9,0-41.9,0-62.8,0c3.8-8.4,7.5-16.8,11.3-25.1c13.4,0,26.7,0,40.1,0    C56.2,36.2,60,44.6,63.8,53.1z"></path>
		<path class="st2" d="M4.3,46.5c18.8,0,37.6,0,56.5,0"></path>
		<path class="st2" d="M7.1,40.2c17,0,34,0,50.8,0"></path>
		<path class="st2" d="M10,34c15.1,0,30.1,0,45.3,0"></path>
		<path class="st2" d="M19.3,27.8c-2.4,8.3-4.9,16.6-7.2,24.9"></path>
		<path class="st2" d="M25.9,27.8c-1.2,8.3-2.4,16.6-3.6,24.9"></path>
		<path class="st2" d="M32.5,27.8c0,8.3,0,16.6,0.1,24.9"></path>
		<path class="st2" d="M39.2,27.8c1.3,8.3,2.5,16.6,3.8,24.9"></path>
		<path class="st2" d="M45.8,27.8c2.5,8.3,5,16.6,7.5,24.9"></path>
	</g>
</g>
</svg>