<?xml version="1.0" encoding="iso-8859-1"?>
<!-- Uploaded to: SVG Repo, www.svgrepo.com, Generator: SVG Repo Mixer Tools -->
<svg version="1.1" id="Layer_1" xmlns="http://www.w3.org/2000/svg" xmlns:xlink="http://www.w3.org/1999/xlink" 
	 viewBox="0 0 512 512" xml:space="preserve">
<rect x="67.905" y="445.106" style="fill:#003A7F;" width="376.163" height="56.445"/>
<path fill="white" d="M205.021,462.878h-0.137c-5.771,0-10.449,4.678-10.449,10.449c0,5.771,4.678,10.449,10.449,10.449h0.137
	c5.771,0,10.449-4.678,10.449-10.449C215.47,467.556,210.792,462.878,205.021,462.878z"/>
<path  fill="white" d="M458.353,264.95L345.927,150.847h104.984c4.226,0,8.036-2.546,9.654-6.45c1.617-3.904,0.723-8.399-2.264-11.387
	L328.35,3.061C326.41,1.12,323.7-0.002,320.957,0H191.013c-2.881,0-5.679,1.233-7.639,3.336L53.7,133.008
	c-2.988,2.988-3.882,7.483-2.264,11.387c1.618,3.905,5.427,6.45,9.654,6.45h104.985L53.647,264.948
	c-2.957,3.001-3.822,7.483-2.196,11.367c1.627,3.886,5.426,6.415,9.639,6.415h115.6l-48.732,151.925H67.905
	c-5.771,0-10.449,4.678-10.449,10.449v56.446c0,5.771,4.678,10.449,10.449,10.449h376.163c5.771,0,10.449-4.678,10.449-10.449
	v-56.446c0-5.771-4.678-10.449-10.449-10.449h-60.051l-48.731-151.924h115.624c4.212,0,8.012-2.529,9.639-6.415
	C462.175,272.432,461.309,267.951,458.353,264.95z M297.723,150.822l-41.736,41.736l-41.736-41.736H297.723z M216.264,129.924
	l39.723-39.723l39.724,39.723H216.264z M270.765,75.424l39.748-39.748v79.496L270.765,75.424z M255.987,60.646l-39.748-39.748
	h79.497L255.987,60.646z M241.21,75.423l-39.748,39.748V35.675L241.21,75.423z M241.21,207.336l-39.748,39.748v-79.496
	L241.21,207.336z M216.264,261.836l39.723-39.723l39.723,39.723L216.264,261.836L216.264,261.836z M294.43,282.734l-38.443,35.837
	l-38.443-35.837H294.43z M240.664,332.856l-82.894,77.276l38.163-118.975L240.664,332.856z M255.987,347.141l93.877,87.514H162.111
	L255.987,347.141z M271.31,332.856l44.731-41.7l38.163,118.975L271.31,332.856z M270.765,207.336l39.748-39.748v79.496
	L270.765,207.336z M331.411,129.949V35.676l94.274,94.273C425.685,129.949,331.411,129.949,331.411,129.949z M180.564,35.7v94.248
	h-94.25L180.564,35.7z M180.564,165.915v95.92H86.053L180.564,165.915z M433.62,491.102H78.354v-7.325h92.725
	c5.771,0,10.449-4.678,10.449-10.449c0-5.771-4.678-10.449-10.449-10.449H78.354v-7.326H433.62V491.102z M331.411,261.834v-95.945
	l94.535,95.945L331.411,261.834L331.411,261.834z"/>
</svg>